<svg width="30" height="30" viewBox="0 0 30 30" fill="none" xmlns="http://www.w3.org/2000/svg">
<path d="M14.9825 15.4262C11.4513 15.4262 8.51625 12.4937 8.51625 9.02375C8.51625 5.43375 11.4513 2.5 14.9838 2.5C18.6363 2.5 21.45 5.4325 21.45 9.02375C21.4437 10.7276 20.7612 12.3592 19.5524 13.56C18.3437 14.7608 16.7076 15.4325 15.0038 15.4275L14.9825 15.4262V15.4262ZM14.9825 6.27125C13.4875 6.27125 12.35 7.5275 12.35 9.025C12.35 10.52 13.4875 11.6575 14.9838 11.6575C16.54 11.6575 17.6175 10.52 17.6175 9.025C17.6188 7.52625 16.54 6.27125 14.9825 6.27125ZM17.5575 20.7538L21.2113 24.285C21.93 25.0612 21.93 26.1988 21.2113 26.9175C20.4338 27.6938 19.235 27.6938 18.6363 26.9175L14.9838 23.3262L11.4513 26.9175C11.0925 27.2763 10.6125 27.455 10.0725 27.455C9.65375 27.455 9.175 27.275 8.755 26.9175C8.03625 26.1988 8.03625 25.0613 8.755 24.2838L12.4675 20.7525C11.1268 20.3555 9.84067 19.7933 8.63875 19.0787C7.74 18.6 7.56125 17.4038 8.04 16.505C8.63875 15.6075 9.71625 15.3688 10.675 15.9675C11.9732 16.7598 13.4647 17.1789 14.9856 17.1789C16.5065 17.1789 17.998 16.7598 19.2963 15.9675C20.255 15.3688 21.3913 15.6075 21.93 16.505C22.47 17.4038 22.2287 18.5987 21.39 19.0787C20.2537 19.7975 18.9363 20.3363 17.5588 20.755L17.5575 20.7538V20.7538Z" fill="white"/>
</svg>
