<svg width="52" height="53" viewBox="0 0 52 53" fill="none" xmlns="http://www.w3.org/2000/svg">
<path d="M26 0.0274658C11.6371 0.0274658 0 11.7345 0 26.1837C0 40.6329 11.6371 52.34 26 52.34C40.3629 52.34 52 40.6329 52 26.1837C52 11.7345 40.3629 0.0274658 26 0.0274658ZM26 10.1525C31.0952 10.1525 35.2258 14.3079 35.2258 19.4337C35.2258 24.5595 31.0952 28.715 26 28.715C20.9048 28.715 16.7742 24.5595 16.7742 19.4337C16.7742 14.3079 20.9048 10.1525 26 10.1525ZM26 46.4337C19.846 46.4337 14.3315 43.6282 10.6411 39.2407C12.6121 35.5072 16.4702 32.9337 20.9677 32.9337C21.2194 32.9337 21.471 32.9759 21.7121 33.0497C23.075 33.4927 24.5008 33.7775 26 33.7775C27.4992 33.7775 28.9355 33.4927 30.2879 33.0497C30.529 32.9759 30.7806 32.9337 31.0323 32.9337C35.5298 32.9337 39.3879 35.5072 41.3589 39.2407C37.6685 43.6282 32.154 46.4337 26 46.4337Z" fill="black"/>
</svg>
